<svg width="32" height="32" viewBox="0 0 32 32" fill="none" xmlns="http://www.w3.org/2000/svg">
<path d="M22.0001 20C21.333 19.9998 20.6726 20.1335 20.0581 20.3931C19.4436 20.6526 18.8875 21.0329 18.4226 21.5113L12.6601 17.8075C13.1133 16.6452 13.1133 15.3549 12.6601 14.1925L18.4226 10.4888C19.2881 11.3754 20.4521 11.9091 21.6888 11.9863C22.9255 12.0635 24.1468 11.6788 25.1159 10.9067C26.085 10.1346 26.733 9.03019 26.9341 7.80752C27.1352 6.58486 26.8751 5.33107 26.2043 4.28925C25.5335 3.24743 24.4998 2.49179 23.3035 2.16885C22.1073 1.8459 20.8337 1.97865 19.7297 2.54136C18.6258 3.10406 17.7701 4.05664 17.3286 5.2144C16.887 6.37216 16.8911 7.65262 17.3401 8.80754L11.5776 12.5113C10.8836 11.7989 9.99304 11.3096 9.01961 11.106C8.04617 10.9023 7.03412 10.9936 6.11284 11.3682C5.19155 11.7427 4.40289 12.3835 3.84765 13.2085C3.29242 14.0336 2.99585 15.0055 2.99585 16C2.99585 16.9945 3.29242 17.9665 3.84765 18.7915C4.40289 19.6166 5.19155 20.2574 6.11284 20.6319C7.03412 21.0064 8.04617 21.0977 9.01961 20.8941C9.99304 20.6905 10.8836 20.2012 11.5776 19.4888L17.3401 23.1925C16.954 24.1882 16.8969 25.2813 17.1771 26.3118C17.4572 27.3422 18.0599 28.256 18.8969 28.9191C19.734 29.5823 20.7613 29.96 21.8285 29.997C22.8958 30.0341 23.9468 29.7284 24.8278 29.1249C25.7088 28.5214 26.3734 27.6516 26.7243 26.643C27.0752 25.6345 27.0939 24.54 26.7779 23.52C26.4618 22.5 25.8274 21.608 24.9676 20.9746C24.1079 20.3411 23.0679 19.9996 22.0001 20ZM22.0001 4.00004C22.5934 4.00004 23.1734 4.17598 23.6668 4.50563C24.1601 4.83527 24.5446 5.30381 24.7717 5.85199C24.9988 6.40016 25.0582 7.00336 24.9424 7.58531C24.8267 8.16725 24.5409 8.7018 24.1214 9.12136C23.7018 9.54091 23.1673 9.82664 22.5853 9.94239C22.0034 10.0581 21.4002 9.99874 20.852 9.77168C20.3038 9.54461 19.8353 9.1601 19.5056 8.66675C19.176 8.1734 19.0001 7.59338 19.0001 7.00004C19.0001 6.20439 19.3161 5.44133 19.8787 4.87872C20.4413 4.31611 21.2044 4.00004 22.0001 4.00004ZM8.00006 19C7.40671 19 6.82669 18.8241 6.33335 18.4944C5.84 18.1648 5.45548 17.6963 5.22842 17.1481C5.00136 16.5999 4.94195 15.9967 5.0577 15.4148C5.17346 14.8328 5.45918 14.2983 5.87874 13.8787C6.29829 13.4592 6.83284 13.1734 7.41479 13.0577C7.99673 12.9419 8.59993 13.0013 9.14811 13.2284C9.69629 13.4555 10.1648 13.84 10.4945 14.3333C10.8241 14.8267 11.0001 15.4067 11.0001 16C11.0001 16.7957 10.684 17.5587 10.1214 18.1214C9.55877 18.684 8.79571 19 8.00006 19ZM22.0001 28C21.4067 28 20.8267 27.8241 20.3333 27.4944C19.84 27.1648 19.4555 26.6963 19.2284 26.1481C19.0014 25.5999 18.9419 24.9967 19.0577 24.4148C19.1735 23.8328 19.4592 23.2983 19.8787 22.8787C20.2983 22.4592 20.8328 22.1734 21.4148 22.0577C21.9967 21.9419 22.5999 22.0013 23.1481 22.2284C23.6963 22.4555 24.1648 22.84 24.4945 23.3333C24.8241 23.8267 25.0001 24.4067 25.0001 25C25.0001 25.7957 24.684 26.5587 24.1214 27.1214C23.5588 27.684 22.7957 28 22.0001 28Z" fill="#2A2420"/>
</svg>
